<?xml version="1.0" encoding="UTF-8"?>
<svg xmlns="http://www.w3.org/2000/svg" xmlns:xlink="http://www.w3.org/1999/xlink"
     width="64px" height="64px" viewBox="0 0 64 64" version="1.1">
<g id="surface1">
<path style=" stroke:none;fill-rule:nonzero;fill:#f47f81;fill-opacity:1;" d="M 15.398438 63.148438 C 15.464844 63.214844 15.535156 63.28125 15.609375 63.339844 C 15.644531 63.367188 15.679688 63.390625 15.714844 63.417969 C 15.753906 63.449219 15.796875 63.480469 15.839844 63.511719 C 15.878906 63.539062 15.925781 63.5625 15.964844 63.585938 C 16.003906 63.609375 16.042969 63.636719 16.082031 63.65625 C 16.125 63.679688 16.171875 63.699219 16.214844 63.71875 C 16.257812 63.738281 16.296875 63.761719 16.339844 63.777344 C 16.382812 63.796875 16.429688 63.8125 16.472656 63.828125 C 16.519531 63.84375 16.5625 63.859375 16.609375 63.875 C 16.652344 63.886719 16.699219 63.898438 16.742188 63.910156 C 16.789062 63.921875 16.835938 63.933594 16.886719 63.945312 C 16.9375 63.953125 16.988281 63.960938 17.039062 63.96875 C 17.082031 63.972656 17.125 63.980469 17.167969 63.984375 C 17.261719 63.996094 17.359375 64 17.453125 64 C 17.550781 64 17.644531 63.996094 17.742188 63.984375 C 17.785156 63.980469 17.828125 63.972656 17.871094 63.96875 C 17.921875 63.960938 17.972656 63.953125 18.023438 63.945312 C 18.070312 63.933594 18.117188 63.921875 18.167969 63.910156 C 18.210938 63.898438 18.253906 63.886719 18.300781 63.875 C 18.34375 63.859375 18.390625 63.84375 18.4375 63.828125 C 18.480469 63.8125 18.523438 63.796875 18.566406 63.777344 C 18.609375 63.761719 18.652344 63.738281 18.691406 63.71875 C 18.738281 63.699219 18.78125 63.679688 18.824219 63.65625 C 18.867188 63.636719 18.902344 63.609375 18.941406 63.585938 C 18.984375 63.5625 19.027344 63.539062 19.070312 63.511719 C 19.113281 63.480469 19.152344 63.449219 19.195312 63.417969 C 19.230469 63.390625 19.265625 63.367188 19.296875 63.339844 C 19.371094 63.28125 19.445312 63.214844 19.511719 63.148438 L 34.058594 48.601562 C 35.191406 47.464844 35.191406 45.625 34.058594 44.488281 C 32.921875 43.351562 31.078125 43.351562 29.941406 44.488281 L 20.363281 54.066406 L 20.363281 2.910156 C 20.363281 1.300781 19.0625 0 17.453125 0 C 15.847656 0 14.546875 1.300781 14.546875 2.910156 L 14.546875 54.066406 L 4.964844 44.488281 C 3.832031 43.351562 1.988281 43.351562 0.851562 44.488281 C -0.285156 45.625 -0.285156 47.464844 0.851562 48.601562 Z M 15.398438 63.148438 "/>
<path style=" stroke:none;fill-rule:nonzero;fill:#f47f81;fill-opacity:1;" d="M 48.390625 0.660156 C 48.355469 0.632812 48.320312 0.609375 48.289062 0.582031 C 48.246094 0.550781 48.203125 0.519531 48.160156 0.488281 C 48.121094 0.460938 48.078125 0.4375 48.035156 0.414062 C 47.996094 0.390625 47.957031 0.367188 47.917969 0.34375 C 47.875 0.320312 47.828125 0.300781 47.785156 0.28125 C 47.742188 0.261719 47.703125 0.238281 47.660156 0.222656 C 47.617188 0.203125 47.574219 0.191406 47.527344 0.175781 C 47.484375 0.15625 47.4375 0.140625 47.390625 0.125 C 47.347656 0.113281 47.304688 0.101562 47.257812 0.09375 C 47.210938 0.078125 47.164062 0.0664062 47.113281 0.0546875 C 47.0625 0.046875 47.011719 0.0390625 46.964844 0.0351562 C 46.917969 0.0273438 46.875 0.0195312 46.832031 0.015625 C 46.738281 0.00390625 46.648438 0 46.554688 0 C 46.550781 0 46.546875 0 46.546875 0 C 46.542969 0 46.539062 0 46.535156 0 C 46.445312 0 46.351562 0.00390625 46.257812 0.015625 C 46.214844 0.0195312 46.171875 0.0273438 46.128906 0.0351562 C 46.078125 0.0390625 46.027344 0.046875 45.976562 0.0546875 C 45.929688 0.0664062 45.878906 0.078125 45.832031 0.09375 C 45.789062 0.101562 45.746094 0.113281 45.699219 0.125 C 45.652344 0.140625 45.609375 0.15625 45.5625 0.175781 C 45.519531 0.191406 45.476562 0.203125 45.433594 0.222656 C 45.386719 0.238281 45.347656 0.261719 45.304688 0.28125 C 45.261719 0.300781 45.21875 0.320312 45.175781 0.34375 C 45.132812 0.363281 45.09375 0.390625 45.054688 0.414062 C 45.011719 0.4375 44.972656 0.460938 44.929688 0.488281 C 44.886719 0.519531 44.84375 0.550781 44.800781 0.582031 C 44.769531 0.609375 44.734375 0.632812 44.703125 0.660156 C 44.628906 0.71875 44.554688 0.785156 44.488281 0.851562 L 29.941406 15.398438 C 28.804688 16.535156 28.804688 18.375 29.941406 19.511719 C 31.078125 20.648438 32.921875 20.648438 34.058594 19.511719 L 43.636719 9.933594 L 43.636719 61.089844 C 43.636719 62.699219 44.9375 64 46.546875 64 C 48.152344 64 49.453125 62.699219 49.453125 61.089844 L 49.453125 9.933594 L 59.035156 19.511719 C 59.601562 20.078125 60.347656 20.363281 61.089844 20.363281 C 61.835938 20.363281 62.582031 20.078125 63.148438 19.511719 C 64.285156 18.375 64.285156 16.535156 63.148438 15.398438 L 48.601562 0.851562 C 48.535156 0.785156 48.464844 0.71875 48.390625 0.660156 Z M 48.390625 0.660156 "/>
</g>
</svg>
